<svg width="28" height="28" viewBox="0 0 28 28" fill="none" xmlns="http://www.w3.org/2000/svg">
<g id="arrow-right">
<path id="Vector" fill-rule="evenodd" clip-rule="evenodd" d="M1.7499 14.0001C1.7499 13.7681 1.84209 13.5455 2.00618 13.3814C2.17028 13.2173 2.39284 13.1251 2.6249 13.1251H23.2627L17.7554 7.61963C17.674 7.53828 17.6095 7.44169 17.5655 7.3354C17.5215 7.22911 17.4988 7.11518 17.4988 7.00013C17.4988 6.88508 17.5215 6.77115 17.5655 6.66486C17.6095 6.55856 17.674 6.46198 17.7554 6.38063C17.8368 6.29927 17.9333 6.23474 18.0396 6.19071C18.1459 6.14668 18.2598 6.12402 18.3749 6.12402C18.49 6.12402 18.6039 6.14668 18.7102 6.19071C18.8165 6.23474 18.913 6.29927 18.9944 6.38063L25.9944 13.3806C26.0759 13.4619 26.1405 13.5585 26.1846 13.6648C26.2288 13.7711 26.2515 13.885 26.2515 14.0001C26.2515 14.1152 26.2288 14.2292 26.1846 14.3355C26.1405 14.4418 26.0759 14.5383 25.9944 14.6196L18.9944 21.6196C18.913 21.701 18.8165 21.7655 18.7102 21.8095C18.6039 21.8536 18.49 21.8762 18.3749 21.8762C18.2598 21.8762 18.1459 21.8536 18.0396 21.8095C17.9333 21.7655 17.8368 21.701 17.7554 21.6196C17.674 21.5383 17.6095 21.4417 17.5655 21.3354C17.5215 21.2291 17.4988 21.1152 17.4988 21.0001C17.4988 20.8851 17.5215 20.7712 17.5655 20.6649C17.6095 20.5586 17.674 20.462 17.7554 20.3806L23.2627 14.8751H2.6249C2.39284 14.8751 2.17028 14.7829 2.00618 14.6188C1.84209 14.4548 1.7499 14.2322 1.7499 14.0001Z" fill="#212529"/>
</g>
</svg>
