<svg width="28" height="28" viewBox="0 0 28 28" fill="none" xmlns="http://www.w3.org/2000/svg">
<g id="arrow-left">
<path id="Vector" fill-rule="evenodd" clip-rule="evenodd" d="M26.2501 14.0001C26.2501 13.7681 26.1579 13.5455 25.9938 13.3814C25.8297 13.2173 25.6072 13.1251 25.3751 13.1251H4.73735L10.2446 7.61963C10.326 7.53828 10.3905 7.44169 10.4345 7.3354C10.4785 7.22911 10.5012 7.11518 10.5012 7.00013C10.5012 6.88508 10.4785 6.77115 10.4345 6.66486C10.3905 6.55856 10.326 6.46198 10.2446 6.38063C10.1632 6.29927 10.0667 6.23474 9.96037 6.19071C9.85408 6.14668 9.74015 6.12402 9.6251 6.12402C9.51005 6.12402 9.39612 6.14668 9.28983 6.19071C9.18353 6.23474 9.08695 6.29927 9.0056 6.38063L2.0056 13.3806C1.92411 13.4619 1.85946 13.5585 1.81535 13.6648C1.77124 13.7711 1.74854 13.885 1.74854 14.0001C1.74854 14.1152 1.77124 14.2292 1.81535 14.3355C1.85946 14.4418 1.92411 14.5383 2.0056 14.6196L9.0056 21.6196C9.08695 21.701 9.18353 21.7655 9.28983 21.8095C9.39612 21.8536 9.51005 21.8762 9.6251 21.8762C9.74015 21.8762 9.85408 21.8536 9.96037 21.8095C10.0667 21.7655 10.1632 21.701 10.2446 21.6196C10.326 21.5383 10.3905 21.4417 10.4345 21.3354C10.4785 21.2291 10.5012 21.1152 10.5012 21.0001C10.5012 20.8851 10.4785 20.7712 10.4345 20.6649C10.3905 20.5586 10.326 20.462 10.2446 20.3806L4.73735 14.8751H25.3751C25.6072 14.8751 25.8297 14.7829 25.9938 14.6188C26.1579 14.4548 26.2501 14.2322 26.2501 14.0001Z" fill="#212529"/>
</g>
</svg>
